<mxfile host="Electron" modified="2024-05-01T15:47:43.736Z" agent="Mozilla/5.0 (Windows NT 10.0; Win64; x64) AppleWebKit/537.36 (KHTML, like Gecko) draw.io/24.2.5 Chrome/120.0.6099.109 Electron/28.1.0 Safari/537.36" etag="wsEAloZbkQddAfpGUGse" version="24.2.5" type="device">
  <diagram id="A296EStzqLQZpHG5BiIK" name="Pagina-1">
    <mxGraphModel dx="1352" dy="311" grid="1" gridSize="10" guides="1" tooltips="1" connect="1" arrows="1" fold="1" page="1" pageScale="1" pageWidth="827" pageHeight="1169" math="0" shadow="0">
      <root>
        <mxCell id="0" />
        <mxCell id="1" parent="0" />
        <mxCell id="1qw2RqAXGJrGj_VHHI8D-3" style="edgeStyle=orthogonalEdgeStyle;rounded=0;orthogonalLoop=1;jettySize=auto;html=1;exitX=0.5;exitY=1;exitDx=0;exitDy=0;entryX=0.5;entryY=1;entryDx=0;entryDy=0;endArrow=none;endFill=0;" edge="1" parent="1" source="eqnc44-38aGD2dst6iPA-1" target="eqnc44-38aGD2dst6iPA-17">
          <mxGeometry relative="1" as="geometry">
            <Array as="points">
              <mxPoint x="-573" y="420" />
              <mxPoint x="-420" y="420" />
            </Array>
          </mxGeometry>
        </mxCell>
        <mxCell id="1qw2RqAXGJrGj_VHHI8D-4" style="edgeStyle=orthogonalEdgeStyle;rounded=0;orthogonalLoop=1;jettySize=auto;html=1;exitX=0.5;exitY=0;exitDx=0;exitDy=0;entryX=0.5;entryY=0;entryDx=0;entryDy=0;endArrow=none;endFill=0;" edge="1" parent="1" source="eqnc44-38aGD2dst6iPA-1" target="eqnc44-38aGD2dst6iPA-17">
          <mxGeometry relative="1" as="geometry" />
        </mxCell>
        <mxCell id="eqnc44-38aGD2dst6iPA-1" value="Avatar" style="whiteSpace=wrap;html=1;align=center;" parent="1" vertex="1">
          <mxGeometry x="-603.12" y="355.44" width="60" height="30" as="geometry" />
        </mxCell>
        <mxCell id="eqnc44-38aGD2dst6iPA-2" value="&lt;font style=&quot;font-size: 8px;&quot;&gt;Esperienza&lt;/font&gt;" style="text;html=1;align=center;verticalAlign=middle;whiteSpace=wrap;rounded=1;strokeColor=none;" parent="1" vertex="1">
          <mxGeometry x="-623" y="321.94" width="49" height="23" as="geometry" />
        </mxCell>
        <mxCell id="eqnc44-38aGD2dst6iPA-3" value="&lt;font style=&quot;font-size: 8px;&quot;&gt;Argomento&lt;/font&gt;" style="text;html=1;align=center;verticalAlign=middle;whiteSpace=wrap;rounded=1;strokeColor=none;" parent="1" vertex="1">
          <mxGeometry x="-360" y="371.44" width="40" height="19" as="geometry" />
        </mxCell>
        <mxCell id="eqnc44-38aGD2dst6iPA-5" value="&lt;span style=&quot;font-size: 8px;&quot;&gt;(0,N)&lt;/span&gt;" style="text;html=1;align=center;verticalAlign=middle;whiteSpace=wrap;rounded=1;strokeColor=none;glass=0;" parent="1" vertex="1">
          <mxGeometry x="-450" y="348.07" width="50" height="15" as="geometry" />
        </mxCell>
        <mxCell id="eqnc44-38aGD2dst6iPA-6" style="edgeStyle=orthogonalEdgeStyle;rounded=0;orthogonalLoop=1;jettySize=auto;html=1;exitX=0;exitY=0.25;exitDx=0;exitDy=0;endArrow=oval;endFill=1;" parent="1" edge="1">
          <mxGeometry relative="1" as="geometry">
            <mxPoint x="-623.12" y="364.17" as="targetPoint" />
            <mxPoint x="-603.12" y="363.94" as="sourcePoint" />
            <Array as="points">
              <mxPoint x="-613.12" y="364.17" />
            </Array>
          </mxGeometry>
        </mxCell>
        <mxCell id="eqnc44-38aGD2dst6iPA-7" value="&lt;font style=&quot;font-size: 8px;&quot;&gt;Nickname&lt;/font&gt;" style="text;html=1;align=center;verticalAlign=middle;whiteSpace=wrap;rounded=1;strokeColor=none;" parent="1" vertex="1">
          <mxGeometry x="-640" y="340.44" width="30" height="23.5" as="geometry" />
        </mxCell>
        <mxCell id="eqnc44-38aGD2dst6iPA-8" value="&lt;span style=&quot;font-size: 8px;&quot;&gt;(0,N)&lt;/span&gt;" style="text;html=1;align=center;verticalAlign=middle;whiteSpace=wrap;rounded=1;strokeColor=none;glass=0;" parent="1" vertex="1">
          <mxGeometry x="-390" y="340.44" width="20" height="21.25" as="geometry" />
        </mxCell>
        <mxCell id="eqnc44-38aGD2dst6iPA-11" style="edgeStyle=orthogonalEdgeStyle;rounded=0;orthogonalLoop=1;jettySize=auto;html=1;exitX=0.152;exitY=-0.053;exitDx=0;exitDy=0;endArrow=oval;endFill=0;exitPerimeter=0;" parent="1" edge="1">
          <mxGeometry relative="1" as="geometry">
            <mxPoint x="-599" y="343.94" as="targetPoint" />
            <mxPoint x="-598.77" y="355.34999999999997" as="sourcePoint" />
            <Array as="points">
              <mxPoint x="-598.77" y="347.94" />
            </Array>
          </mxGeometry>
        </mxCell>
        <mxCell id="1qw2RqAXGJrGj_VHHI8D-2" style="edgeStyle=orthogonalEdgeStyle;rounded=0;orthogonalLoop=1;jettySize=auto;html=1;exitX=1;exitY=1;exitDx=0;exitDy=0;endArrow=oval;endFill=0;" edge="1" parent="1" source="eqnc44-38aGD2dst6iPA-17">
          <mxGeometry relative="1" as="geometry">
            <mxPoint x="-370" y="378" as="targetPoint" />
          </mxGeometry>
        </mxCell>
        <mxCell id="eqnc44-38aGD2dst6iPA-17" value="Relazione" style="shape=rhombus;perimeter=rhombusPerimeter;whiteSpace=wrap;html=1;align=center;" parent="1" vertex="1">
          <mxGeometry x="-460" y="340.44" width="80" height="50" as="geometry" />
        </mxCell>
      </root>
    </mxGraphModel>
  </diagram>
</mxfile>
